<svg width="1379" height="203" viewBox="0 0 1379 203" fill="none" xmlns="http://www.w3.org/2000/svg">
<path d="M226.828 163H243.676V49.12H226.828V163ZM271.818 131.176H333.906C334.218 128.992 334.53 126.496 334.53 124.156C334.53 101.692 318.618 82.972 295.374 82.972C270.882 82.972 254.19 100.912 254.19 124C254.19 147.4 270.882 165.028 296.622 165.028C311.91 165.028 323.61 158.632 330.786 148.024L316.902 139.912C313.158 145.372 306.138 149.584 296.778 149.584C284.298 149.584 274.47 143.344 271.818 131.176ZM271.662 117.448C274.002 105.748 282.582 98.26 295.218 98.26C305.358 98.26 315.186 104.032 317.526 117.448H271.662ZM405.994 85V96.076C400.066 87.964 390.862 82.972 378.694 82.972C357.478 82.972 339.85 100.756 339.85 124C339.85 147.088 357.478 165.028 378.694 165.028C390.862 165.028 400.066 160.036 405.994 151.768V163H422.842V85H405.994ZM381.346 148.96C367.306 148.96 356.698 138.508 356.698 124C356.698 109.492 367.306 99.04 381.346 99.04C395.386 99.04 405.994 109.492 405.994 124C405.994 138.508 395.386 148.96 381.346 148.96ZM454.648 98.104V85H437.8V163H454.648V123.688C454.648 106.216 467.596 101.068 478.672 101.848V83.596C468.844 83.596 459.328 87.496 454.648 98.104ZM527.468 82.972C516.86 82.972 508.436 86.872 503.288 94.984V85H486.44V163H503.288V121.192C503.288 105.28 512.024 98.728 523.1 98.728C533.708 98.728 540.572 104.968 540.572 116.824V163H557.42V115.108C557.42 94.828 544.94 82.972 527.468 82.972ZM607.697 165.028C622.985 165.028 636.245 157.072 642.797 144.748L628.289 136.48C624.545 143.656 616.901 148.492 607.541 148.492C593.813 148.492 583.361 138.04 583.361 124C583.361 109.96 593.813 99.508 607.541 99.508C616.901 99.508 624.545 104.188 627.977 111.52L642.485 103.096C636.245 90.928 622.985 82.972 607.697 82.972C584.141 82.972 566.513 100.756 566.513 124C566.513 147.088 584.141 165.028 607.697 165.028ZM691.323 82.972C680.715 82.972 672.291 86.872 667.143 94.984V53.8H650.295V163H667.143V121.192C667.143 105.28 675.879 98.728 686.955 98.728C697.563 98.728 704.427 104.968 704.427 116.824V163H721.275V115.108C721.275 94.828 708.795 82.972 691.323 82.972ZM747.996 131.176H810.084C810.396 128.992 810.708 126.496 810.708 124.156C810.708 101.692 794.796 82.972 771.552 82.972C747.06 82.972 730.368 100.912 730.368 124C730.368 147.4 747.06 165.028 772.8 165.028C788.088 165.028 799.788 158.632 806.964 148.024L793.08 139.912C789.336 145.372 782.316 149.584 772.956 149.584C760.476 149.584 750.648 143.344 747.996 131.176ZM747.84 117.448C750.18 105.748 758.76 98.26 771.396 98.26C781.536 98.26 791.364 104.032 793.704 117.448H747.84ZM832.938 106.528C832.938 100.912 838.242 98.26 844.326 98.26C850.722 98.26 856.182 101.068 858.99 107.152L873.186 99.196C867.726 88.9 857.118 82.972 844.326 82.972C828.414 82.972 815.778 92.176 815.778 106.84C815.778 134.764 857.742 126.964 857.742 140.848C857.742 147.088 851.97 149.584 844.482 149.584C835.902 149.584 829.662 145.372 827.166 138.352L812.658 146.776C817.65 158.008 828.882 165.028 844.482 165.028C861.33 165.028 874.902 156.604 874.902 141.004C874.902 112.144 832.938 120.724 832.938 106.528ZM895.442 106.528C895.442 100.912 900.746 98.26 906.83 98.26C913.226 98.26 918.686 101.068 921.494 107.152L935.69 99.196C930.23 88.9 919.622 82.972 906.83 82.972C890.918 82.972 878.282 92.176 878.282 106.84C878.282 134.764 920.246 126.964 920.246 140.848C920.246 147.088 914.474 149.584 906.986 149.584C898.406 149.584 892.166 145.372 889.67 138.352L875.162 146.776C880.154 158.008 891.386 165.028 906.986 165.028C923.834 165.028 937.406 156.604 937.406 141.004C937.406 112.144 895.442 120.724 895.442 106.528ZM957.676 164.872C964.072 164.872 969.376 159.568 969.376 153.172C969.376 146.62 964.072 141.472 957.676 141.472C951.124 141.472 945.976 146.62 945.976 153.172C945.976 159.568 951.124 164.872 957.676 164.872ZM1013.19 165.028C1036.12 165.028 1054.37 147.088 1054.37 124C1054.37 100.756 1036.12 82.972 1013.19 82.972C990.411 82.972 972.003 100.756 972.003 124C972.003 147.088 990.411 165.028 1013.19 165.028ZM1013.19 148.648C999.459 148.648 988.851 138.196 988.851 124C988.851 109.804 999.459 99.352 1013.19 99.352C1026.92 99.352 1037.52 109.804 1037.52 124C1037.52 138.196 1026.92 148.648 1013.19 148.648ZM1105.95 82.972C1095.35 82.972 1086.92 86.872 1081.77 94.984V85H1064.93V163H1081.77V121.192C1081.77 105.28 1090.51 98.728 1101.59 98.728C1112.19 98.728 1119.06 104.968 1119.06 116.824V163H1135.91V115.108C1135.91 94.828 1123.43 82.972 1105.95 82.972ZM1149.37 163H1166.21V49.12H1149.37V163ZM1189.52 73.3C1195.45 73.3 1200.29 68.308 1200.29 62.536C1200.29 56.608 1195.45 51.772 1189.52 51.772C1183.59 51.772 1178.76 56.608 1178.76 62.536C1178.76 68.308 1183.59 73.3 1189.52 73.3ZM1181.1 163H1197.95V85H1181.1V163ZM1253.86 82.972C1243.25 82.972 1234.82 86.872 1229.68 94.984V85H1212.83V163H1229.68V121.192C1229.68 105.28 1238.41 98.728 1249.49 98.728C1260.1 98.728 1266.96 104.968 1266.96 116.824V163H1283.81V115.108C1283.81 94.828 1271.33 82.972 1253.86 82.972ZM1310.53 131.176H1372.62C1372.93 128.992 1373.24 126.496 1373.24 124.156C1373.24 101.692 1357.33 82.972 1334.08 82.972C1309.59 82.972 1292.9 100.912 1292.9 124C1292.9 147.4 1309.59 165.028 1335.33 165.028C1350.62 165.028 1362.32 158.632 1369.5 148.024L1355.61 139.912C1351.87 145.372 1344.85 149.584 1335.49 149.584C1323.01 149.584 1313.18 143.344 1310.53 131.176ZM1310.37 117.448C1312.71 105.748 1321.29 98.26 1333.93 98.26C1344.07 98.26 1353.9 104.032 1356.24 117.448H1310.37Z" fill="#0D0D0D"/>
<path fill-rule="evenodd" clip-rule="evenodd" d="M23.6345 119.831L32.657 56.8076C35.851 34.4971 54.4317 17.5937 76.944 16.5185L88.3468 2.87388C92.4702 -2.06021 100.435 -0.359798 102.184 5.828L107.857 25.9007L141.967 61.7438C150.649 70.8663 144.182 85.9467 131.589 85.9467H95.6793L97.0759 90.0449L73.3864 79.1032C60.0034 72.9218 44.7596 82.8505 45.0029 97.59L45.5583 131.248H33.5336C27.4469 131.248 22.7719 125.856 23.6345 119.831ZM45.6904 139.248H24.5C18.1487 139.248 13 144.396 13 150.748C13 157.099 18.1487 162.248 24.5 162.248H46.298C46.1317 161.251 46.0365 160.221 46.019 159.161L45.6904 139.248ZM49.5508 170.248H11.5C5.14873 170.248 0 175.396 0 181.748C0 188.099 5.14873 193.248 11.5 193.248H121.5C127.851 193.248 133 188.099 133 181.748C133 177.343 130.523 173.516 126.887 171.585C125.436 174.267 123.38 176.677 120.753 178.595C111.312 185.488 98.0705 183.422 91.1775 173.981L88.4517 170.248H84.2963L77.8097 174.984C68.149 182.037 55.5829 178.892 49.5508 170.248Z" fill="#0D0D0D"/>
<path d="M56.0176 158.996C56.1513 167.101 65.3663 171.687 71.9129 166.907L89.1865 154.296L99.2539 168.085C102.89 173.065 109.876 174.155 114.856 170.518C119.837 166.882 120.926 159.897 117.29 154.916L107.223 141.127L123.173 129.482C129.332 124.985 128.393 115.525 121.469 112.327L69.1932 88.1818C62.5017 85.0911 54.8798 90.0554 55.0014 97.4252L56.0176 158.996Z" fill="#0D0D0D"/>
</svg>
